<?xml version="1.0" encoding="utf-8"?>
<!-- Generator: Adobe Illustrator 18.1.1, SVG Export Plug-In . SVG Version: 6.00 Build 0)  -->
<!DOCTYPE svg PUBLIC "-//W3C//DTD SVG 1.1//EN" "http://www.w3.org/Graphics/SVG/1.1/DTD/svg11.dtd">
<svg version="1.1" id="svg2" xmlns:svg="http://www.w3.org/2000/svg"
	 xmlns="http://www.w3.org/2000/svg" xmlns:xlink="http://www.w3.org/1999/xlink" x="0px" y="0px" viewBox="-320 122.5 317.5 317.5"
	 enable-background="new -320 122.5 317.5 317.5" xml:space="preserve">
<g id="g3475" transform="matrix(1.2893871,0,0,1.2893871,-221.23847,-64.784815)">
	<path id="path5219" stroke="#000000" stroke-width="3.45" stroke-linecap="round" stroke-linejoin="round" d="M54.8,228.4
		l30.1,82.4c0,0,9.3-0.4,16.5,0c4.6,0.3,8.2-1.6,11.7-4.7c4.5-4.1,8.7-9,8.7-9l46.2,0.6l0.1-75.8l-43.9,0.5
		c-18-11.9-42.5-25.5-58.2-27.7"/>
	<path id="path3247" fill="#FFFFFF" stroke="#000000" stroke-width="3.45" stroke-miterlimit="10" d="M-74.6,220.4l47.7-0.1
		c12.3-13.9,24.2-14.1,38.2-18.5c33-10.3,52.5,21.3,61.1,27.2c1.2,0.8,1.8,1.4,2.7,2.4c14.4,16.1,16.8,17.7,26.2,27.5
		c6.9,7.1,9.3,8,9.4,19.5c0.1,12.8-1.4,31.6-1.4,31.6c-2,6-8.2,9.4-13.5,9.6c-5.5,6.1-10.7,7.3-17.2,5.4c-2.7,5.8-8.1,9.1-15.7,8.7
		c-4.4,4-6.8,4.1-13.6,2.8c-42.6,2.6-62.6-18.6-82.1-40.4l-41.9,0.5L-74.6,220.4z"/>
	<path id="path5211" stroke="#000000" stroke-width="3.45" stroke-linecap="round" stroke-linejoin="round" d="M-30.2,306.5
		l16.5-15.2c7.2-1.5,12.5,6.8,9.3,12.5l-14.5,17C-26.5,320.4-32.4,313.2-30.2,306.5z"/>
	<path id="path5205" stroke="#000000" stroke-width="3.45" stroke-linecap="round" stroke-linejoin="round" d="M-14.3,318
		c10.3-14.5,19.3-21.4,29.6-34.3c8-7.2,20.4,1.6,15.4,10.1c-5,8.5-29.7,33.6-32,35.7C-7.1,332.3-16.8,325.9-14.3,318z"/>
	<path id="path5213" fill="none" stroke="#000000" stroke-width="3.45" stroke-linecap="round" stroke-linejoin="round" d="
		M62.8,333.2c0.7-10,1.1-19.4,0.5-25.2c-3.5-6.3-17-15.8-27.8-23.7"/>
	<path id="path5207" stroke="#000000" stroke-width="3.45" stroke-linecap="round" stroke-linejoin="round" d="M5.4,326.1
		c12.3-13.3,22.8-28.4,34.9-42c7.4-7.6,20.8,2.6,15.5,10.1c-8.4,11.7-31.6,38.9-35.9,43C14.1,339.6,4.4,333.7,5.4,326.1z"/>
	<path id="path5223" stroke="#000000" stroke-width="3.45" stroke-linecap="round" stroke-linejoin="round" d="M65.7,194.8
		c-10.8,2.4-26.2,13-38.8,19.7c-9.8,30.4-17.3,40.1-7.9,42.5c14.1,4.5,29.2-18.1,34.9-32.7l19.8,4.9"/>
	<path id="path5215" fill="none" stroke="#000000" stroke-width="3.45" stroke-linecap="round" stroke-linejoin="round" d="
		M78.7,324.9l0.2-31.2l-24.8-22.6l-0.5-2.7"/>
	<path id="path5217" fill="none" stroke="#000000" stroke-width="3.45" stroke-linecap="round" stroke-linejoin="round" d="
		M66.2,249.7c0,0,0.3,0.4,0.5,2.5c1.1,1.6,24.1,22.5,27,27.3c0.1,13.4,0.3,26.6,1.7,40.1"/>
	<path id="path5209" stroke="#000000" stroke-width="3.45" stroke-linecap="round" stroke-linejoin="round" d="M26.2,335.5
		c0.9-1.6,19.1-25.5,27.4-33.9c6.9-6.9,19.5,3.9,11.5,13.4c-10,12-16.9,20.8-25.8,27.4C33.8,344.1,25.5,341.1,26.2,335.5z"/>
</g>
</svg>
